<svg xmlns="http://www.w3.org/2000/svg" xmlns:xlink="http://www.w3.org/1999/xlink" xml:space="preserve" width="7000" height="7000" version="1.1" style="shape-rendering:geometricPrecision; text-rendering:geometricPrecision; image-rendering:optimizeQuality; fill-rule:evenodd; clip-rule:evenodd"><rect id="backgroundrect" width="100%" height="100%" x="0" y="0" fill="none" stroke="none" class="" style=""/>
 <defs>
  <style type="text/css">
   <![CDATA[
    .fil1 {fill:#FEFEFE}
    .fil6 {fill:#4B4B4D}
    .fil7 {fill:#E5AD36}
    .fil9 {fill:#34437A}
    .fil0 {fill:#201E1E}
    .fil3 {fill:#5F0603}
    .fil4 {fill:#620604}
    .fil5 {fill:#640603}
    .fil2 {fill:#950F0C}
    .fil8 {fill:#A0102B}
    .fil10 {fill:white}
   ]]>
  </style>
 </defs>
 
<g class="currentLayer" style=""><title>Layer 1</title><g id="Layer_x0020_1" class="">
  <metadata id="CorelCorpID_0Corel-Layer" transform="translate(266.6666564941406,266.6666564941406) translate(99.99999237060547,199.99998474121094) translate(33.33333206176758,0) translate(-6699.99951171875,-9500) translate(74.79052734375,-34.749481201171875) scale(0.8462034463882446,0.68521648645401) translate(-74.79052734375,34.749481201171875) translate(88.38362121582031,-50.7138786315918) scale(0.980351448059082,1.0432369709014893) translate(-88.38362121582031,50.7138786315918) translate(250.8794708251953,231.1697998046875) scale(0.9047989249229431,0.9481937289237976) translate(-250.8794708251953,-231.1697998046875) "/>
  <ellipse class="fil0" cx="3217.933601413059" cy="4424.080912762679" rx="2722.0515283770997" ry="564.7307899868651" id="svg_1"/>
  <ellipse class="fil1" cx="3196.8420297472608" cy="4402.641867820728" rx="2722.0515283770997" ry="564.7307899868651" id="svg_2"/>
  <ellipse class="fil2" cx="3142.858923926054" cy="4394.108348187779" rx="2124.295980426159" ry="435.5741384684742" id="svg_3"/>
  <path class="fil3" d="M1171.6026369067556,4546.784955523817 c17.48147803554464,-34.03960878916903 -11.078858557519919,-60.765649700298766 94.84583789486565,-134.70114405956912 c252.26921223556027,-176.08821121740786 1039.2134458991804,-273.7741614104592 1417.193175154621,-290.59740095938747 c-22.818245267520698,-53.865545807950284 -3.910626902756015,-106.15857285065022 92.90928944781949,-156.16738082486148 l1.4486583344182546,-0.7320345976165383 c-227.03403441009826,-12.634374907011363 -1807.4827472517509,120.05367400911227 -1760.8104284775914,440.89494880706445 c6.117391412180715,42.125879853581345 35.390798169855294,66.4185835374487 61.63178022750411,87.89837649899323 c26.203452048985117,21.445902470914138 58.93712560545149,49.28355147472082 92.78168741836296,53.40463513537691 z" id="svg_4"/>
  <path class="fil0" d="M3296.724365484474,3590.7206586441134 c-4.976479148804679,-5.1649107720722425 -2.2593065215538584,-3.4703862405524784 -10.981280534994337,-9.86213277344503 l-38.42322286988107,-24.04191405320242 c-21.512200966024448,-14.60002336357429 -29.79882687896618,-18.009406720992057 -50.71054770637166,-35.00887682119833 c-99.24435491024957,-80.67970199471903 -173.65135008687216,-138.05630263197824 -243.0368301042937,-256.0494348107625 c-192.66405247589518,-327.62615102215733 -86.35654993514001,-645.2952758971045 125.96572107879354,-943.0503484776315 c119.53307759383787,-167.62914475606118 193.57227868555634,-219.3324772617922 310.15549759842855,-353.89805935883976 c220.54134291128065,-254.53791892864683 365.60983839989007,-562.934605567118 174.41696226361137,-923.1701866738416 c-101.43610741620878,-191.10169856667295 -319.0275916465238,-370.45017498272483 -522.8680807024646,-482.06511682486865 c-50.207645590278275,-27.485187901250576 -179.9113555319749,-96.91324700667836 -244.57556045950477,-109.86619252561545 c8.271613909476253,14.071331709740127 72.10265264467232,44.28131505767448 104.46102611450182,66.7710446400048 c37.19974458744493,25.844888154739447 60.74607202304114,44.87778769276943 96.95502438176474,73.74570761174014 c48.03841108951726,38.29625441234668 122.2502502210887,121.74819854063203 158.4892265867433,172.17047050053415 c213.2980512391894,296.71802356723686 197.4753995865796,651.070215500524 4.631203069098774,954.1867636987794 c-43.234569980565546,67.95721181206862 -84.37496547769743,131.33242929090784 -135.3932592551113,190.68823458098214 l-160.1930889800746,174.86137545658755 c-194.33789086229558,209.9515894552988 -439.7541235158669,532.2908239391145 -304.1807202191698,892.1061629620212 c79.25587229597075,210.32438485223318 277.31674001770386,378.86857285531505 494.21016608687427,501.125128755403 c43.61737606893513,24.577383805162665 188.0553674119946,100.53952950413067 241.07776365204927,111.35737411335283 z" id="svg_5"/>
  <path class="fil0" d="M4078.7671800166167,1411.446883441553 l1.6363083777366825,-7.544023214325993 c66.37557332259394,107.90054406905253 108.79198911429113,157.97713302452462 121.79989011712448,305.76678456555237 c24.251891598473485,275.5161326288615 -190.30716793181574,550.1985591882153 -426.58859647664605,724.3414562434386 c-293.66481179160525,216.4382293619565 -517.5313134704885,551.0797119446057 -350.8905690019927,903.6424859726078 c30.114078951741135,63.70734428701707 78.12246603432746,135.56874061970726 128.96812177188838,189.75285703958323 c14.464065338984337,15.413395138703775 39.0161970067673,44.88456579089552 60.89619205769586,54.25189740113679 c-29.648706844311437,-58.698329771844634 -52.25678406331551,-86.63087214941643 -71.0292943968909,-158.76339240714975 c-72.94332483873887,-280.3828070833863 106.86294666897771,-556.847873449899 315.43972281827547,-757.0051111130135 c62.464946419837915,-59.945499827043186 175.95569261882244,-155.24555947971476 247.93074323403823,-213.73376820965092 c306.1097626644833,-248.7358669327232 382.8286063747889,-599.4753325648101 136.93198961032243,-906.9773102506387 c-36.99708254066103,-46.26729780861565 -68.372169783502,-80.93049162538395 -109.02467516800597,-120.11467689224698 c-31.772905334676025,-30.623447333625183 -92.03859324682199,-84.65844559472743 -127.25675337682434,-103.37277452083171 c13.180539042686297,15.820081026268522 25.302731841056673,27.41062882186371 39.58665313845532,43.467943282544994 c14.373993318191493,16.152207834446394 19.050232397686692,32.209522295127684 31.60026729482308,46.287632102993896 z" id="svg_6"/>
  <path class="fil0" d="M3782.550327635881,1321.203284990937 c57.25578121731839,346.25914277074867 -64.69422893446082,573.325429994397 -412.26714517058366,968.9494614173796 c-54.343452545016405,58.05441044986714 -105.21162628777553,110.84223865577083 -152.77715926813036,175.36973281604347 c-208.00632001760977,282.1925592830494 -263.76840689011345,591.4365081872804 -39.75178517657553,907.5941171801119 c45.27620245187002,63.890352936421195 170.53635936778628,187.04161778915162 250.43024181103968,199.0185171779333 l-13.338165079073777,-16.931689118945485 c-21.887501052661303,-9.374109708367337 -46.43212671871153,-38.84528036055909 -60.888686055963134,-54.25867549926286 c-50.85316173929367,-54.17733832174992 -98.86905482361271,-126.04551275256615 -128.9756277736211,-189.75963513770932 c-166.64825047022848,-352.5559959298761 29.648706844311437,-660.7290053301865 323.32102463764943,-877.1740127902692 c208.11140404186807,-202.88881120792445 416.38043412012365,-464.38783691205447 392.1285425216501,-739.9039695409159 c-13.007901002833345,-147.78965154102778 -20.964262839534644,-182.30372719902235 -87.33983616212858,-290.19749316994876 l-70.54140428426301,-82.70635333441666 z" id="svg_7"/>
  <path class="fil4" d="M3877.283575504755,4123.201269330758 c196.49961936132385,1.2539481533246257 581.9328083373724,52.61837575275173 755.6141824311755,82.27255505434759 c155.63694592830316,26.55658845797775 339.5264823786287,64.79183998718972 488.77582083237274,115.485235872135 c48.02339908605179,16.321660287598373 99.86735305406675,41.50229482598208 146.43458780396753,55.614295124478666 c-37.49247865502168,-127.90271163911183 -307.2281569226611,-225.06674827645512 -606.9353001091198,-287.1202366207089 c-255.3166489390515,-52.86238728529057 -532.61837695329,-80.74070487785374 -696.5719728014658,-97.13692424483898 c-16.040325702859125,45.182802108443 -55.034004704428206,86.81388079882059 -87.31731815693037,130.8850748145866 z" id="svg_8"/>
  <path class="fil4" d="M4057.5702311233676,3892.9967226747362 c-43.197039971901845,169.16099493255504 -107.90628090982814,338.91846250020507 -453.5876847093013,482.76326093185486 c-192.8291845140154,80.2323475183978 -524.4893770767357,71.82750584205978 -724.8996233408155,-63.19898692756114 c202.09159065221294,105.44009444928582 496.5445326257555,106.55170254196278 673.7387155304797,32.8195511264748 c332.1480826753482,-138.205420790752 404.8812394655704,-300.3578622609413 448.38602550851454,-462.9102115205693 c18.254596214016562,5.490259482124037 37.22226259264315,9.028426703937305 56.36256701112268,10.526386389800777 z" id="svg_9"/>
  <path class="fil0" d="M3425.076995114278,6277.531643429348 c-196.84489544102973,0 -521.5170003905718,5.219135557080874 -713.6406207417099,-19.968277079428905 c-213.9285553847393,-28.04777004571514 -334.30230517264374,-30.304876721699472 -571.1016478370329,-78.34803623934783 l-870.5685989680438,-167.4935827935396 c-8.571853978785738,28.98314758711405 -8.736986016905954,10.106144305983875 -17.308839995691688,39.08929189309793 c42.491475809024564,8.940311428298278 76.60625368431457,21.696692101579067 119.30789754185575,32.96189118712246 c171.00173147521596,45.12179922530828 387.4072674317585,139.05268305651188 536.8367499270882,226.56470796231858 c210.49080659114574,123.27327061899983 496.7096646638758,154.37118482145053 745.6086821214373,186.54681662594786 l355.84453014559915,30.420104389842813 c116.26796684009727,8.614962718246483 262.6950486423321,5.849498682806228 380.3666378064512,0.37957349506042776 c25.137599802936457,-1.172610975811677 52.35436208584108,1.4572910971069972 77.47694988531207,-0.38635159318650686 c270.38119441665486,-19.85982750941164 779.2280638823665,-60.48774767712951 1013.3402579264358,-171.45199209916976 c59.33494369728655,-28.122329125102013 248.91402946102681,-135.20272332089897 308.7969112848031,-158.89217627154528 c106.40508056328072,-42.10554555920311 361.984439562978,-131.21720162276446 470.07837051612466,-153.95772083575972 c-5.3067432250451105,-20.564749714523863 -7.866289815908453,-22.977752647408007 -17.308839995691688,-39.096069991224006 c-69.25787798796497,14.579689069196055 -138.98863408509237,33.45669235032623 -208.35910209904836,46.35541308425468 c-74.75227125632851,13.895101158462069 -151.95900507926203,20.679977382667207 -227.83717659550112,36.574617488322595 c-251.75880411773412,52.73360342089507 -384.9903348738172,87.05111423323335 -647.0398673671339,127.02155888272154 c-73.9416230691929,11.278755281795553 -163.15795966450574,24.69261147330601 -233.86449598688895,31.13858279120719 c-162.50493751375762,14.803366307356663 -326.78879743817396,32.54164910330555 -500.62779756836454,32.54164910330555 z" id="svg_10"/>
  <path class="fil5" d="M2830.0762377602096,4093.0455107678326 c45.666514541972354,2.8942478998357575 93.69741962975688,-54.678917583079766 196.67976340290946,-90.38593851126424 c73.92661106572743,-25.655101407209234 140.96271254080224,-44.403320823943915 223.17594951947137,-63.03631257253524 c168.23952283756873,-38.1268019591947 333.011272874613,-54.49590893367563 535.8309456949014,-50.734064473701736 c12.805238956049443,-19.554813093738083 22.69064323806417,-40.32290575204431 29.04072070395973,-62.37205895617949 c-140.85012251481118,-119.28774892086534 -1000.1221888750856,14.064553611614045 -1087.7997951151874,194.99910498916842 c13.345671080806516,27.668196550654713 44.833348349638534,50.1985947217415 88.87856651733966,67.46241064886486 c4.676239079495197,1.4437349008548392 9.412526172852287,2.7993545260706507 14.193849276605803,4.066858875647434 z" id="svg_11"/>
  <path class="fil2" d="M2867.04329629394,4105.3206464741625 l0.5104081178261215,0.12200576626942296 l6.072355401784291,1.3420634289636535 c21.992585076919624,4.927677337659476 42.3563677778353,9.109763881450254 65.09955302802862,12.085348958798958 c140.2721603813904,18.34831162729601 294.2502799267587,11.407539146191052 429.8912372390504,-14.742363424221951 l12.565046900601857,-2.4875620122710145 l4.368493008452977,-0.8879308545163568 l7.903819824572137,-1.721636924024082 c68.91260190825906,-16.070870656933447 133.65937285484904,-35.7002428300584 190.67496201671983,-59.13890615003978 c99.63466700035191,-42.80368966618926 178.8605152893917,-101.2715641017472 216.02272986817297,-176.18988268929903 c-210.16804851663804,-4.093971268151751 -378.9855334876275,18.307643038539535 -553.2899057252479,59.46425486009157 c-85.14057765443663,20.097060943824406 -154.54106967532357,40.35001814454863 -231.1022873492417,68.01821469520335 c-104.12325603652867,37.632000795990926 -154.00063755056652,97.72661878180784 -200.30516223982153,97.63172540804275 c15.687543621420481,6.168069294731943 32.9213235997848,11.698997365612456 51.5887499091019,16.504668937002506 z" id="svg_12"/>
  <path class="fil0" d="M3770.4881828513726,5575.578245296349 l-97.15018042681594,-268.1008932789311 c-12.58756490580007,-39.550202565671306 -88.51077243243556,-254.53791892864683 -120.73403787107578,-255.46651837191968 c-1.5387303552110996,-0.0406685887564744 -14.651715382302767,-0.033890490630395335 -17.451454028613693,0.033890490630395335 c-70.46634426693564,1.6606340408893692 -116.73333894752695,-10.526386389800777 -116.73333894752695,23.845349207546125 c0.6229981438171778,338.92524059833113 -6.417631481490197,690.2205102767565 11.228978592174661,1027.8985808198893 c0.6905521594118109,13.264738032736716 5.539429278759959,34.764865288659486 5.539429278759959,62.338168465549096 l125.73303502507869,0 c11.424134637225825,-238.10780907103123 8.38420393546731,-487.9417279001792 8.38420393546731,-726.8222401575835 l7.708663779520973,15.752300045007727 c3.760506868101273,9.170766764584965 5.321755228510584,14.999931153012955 8.294131914674466,22.787965899877793 c73.41620294790131,192.43698389751054 119.36794555571765,395.29190461480465 143.22952506408882,597.4486812251124 c11.056340552321709,93.70042849491689 -1.200960277237932,83.25537928262908 100.6254592290732,83.25537928262908 c39.49658111766247,0 32.763697563397315,-51.79822587949616 38.205548819631694,-86.62409405129036 l58.8395475829259,-567.6792742553732 c11.791928722129942,-70.51933290372652 7.603579755262655,-248.47829920393212 22.58555921380585,-350.5835693751871 c18.066946170698134,-123.0631495770914 26.496186116561866,-133.09473480368837 -22.803233264055226,-128.51274047045894 c-137.457409731614,12.763158771406864 -128.99063977708656,-9.401222100871653 -130.52186413056492,73.29835313541894 c-2.469474570070497,133.09473480368837 -24.97997376654898,311.01981061326364 -24.97997376654898,477.13066138908306 z" id="svg_13"/>
  <path class="fil0" d="M2422.8456197522933,6106.967582184696 l-136.36903948036715,-331.08975916458377 c-6.7103655490669425,-25.573764229696284 -17.856778122181495,-56.522560273373266 -28.28261452895329,-88.02716036338873 c-10.51590842756464,-31.809614505689016 -17.939344141241598,-59.43036436946119 -27.0891602534481,-89.09132176918314 c-19.102774409815847,-61.911148283606124 -35.023004084951175,-125.04913232803256 -51.348557853654306,-188.32945643310666 c31.074847173531474,20.564749714523863 56.09985695047687,92.69049187413113 80.24666452469204,131.94245812225495 l75.99076154223012,135.77886166161568 c17.519008044208327,32.494202416423 38.468258880277496,59.17279664067018 58.21654943910874,91.28064746390666 c19.778314565762187,32.14851941199297 27.03661824131894,58.98978799126604 48.93913129744572,92.07368494465793 l107.80119688556984,175.1935022647654 c32.84626358245743,62.2364969936579 5.1341051851921575,23.947020679437312 56.31002499899352,92.9887281916786 c50.995775772215666,0 61.15139611660893,7.564357508704228 108.97963915760955,7.564357508704228 c-21.87248904919583,-84.76011706661862 -57.16570919652554,-163.2166028759837 -79.07572825438506,-254.1380111392082 c-65.4598411112,-271.66617289324864 -63.86106274212702,-232.05496744444264 -116.32801485395915,-553.6147206437593 c-6.455161490153882,-39.61120544880601 -29.506092811389436,-279.16952751881814 -39.308931074344045,-297.6195106180054 c-21.174430888051283,-9.177544862711045 -123.54128251911946,-15.142271213660615 -159.26985076694794,-15.142271213660615 c0,50.30026619363268 13.56334513105589,86.3529701262472 16.76090186920188,136.28044092294553 c4.6912510829606715,73.42035890168836 30.151608960404822,184.37782522560252 42.22876574837877,264.70506611776545 c6.207463432973558,41.31250807845186 23.74148348064736,84.69233608535784 24.83735973362698,128.98720733928448 c-7.521013736202546,-7.815147139369152 -4.38350501191845,-1.9859827509411638 -13.938645217692743,-17.69761420719242 c-6.950557604514531,-11.421095342443214 -5.9672713775259725,-11.556657304964794 -10.163126346125996,-21.100219466484106 c-8.71446801170774,-19.832715116907323 -8.879600049827957,-22.73374111486916 -21.241984903645918,-41.380289059712645 l-139.07120010415247,-245.38070836031406 c-161.21390521572684,-291.43110702889516 -106.37505655634979,-214.01844833094626 -276.6186818565593,-249.84069692727408 c0,131.22397972089055 142.34381685962583,662.3828612729499 201.08578642002615,795.0437977965693 c20.656516768492423,46.64687130367607 38.205548819631694,95.30005965267155 59.867869820310894,142.77385892772926 c19.808338572693135,43.413718497536365 45.801622573161616,94.87981756885466 64.6867229327281,138.42231993078653 c21.512200966024448,49.60890018477263 14.373993318191493,59.41680817320902 152.1541611243132,59.41680817320902 z" id="svg_14"/>
  <path class="fil0" d="M5351.139557739809,5398.120858257474 l83.82702735120763,-408.47530547002833 c41.83845365827644,-8.63529701262472 132.8412186659807,-28.86114182084463 176.03825863788254,-29.70840408660451 c-1.005804232186768,39.63831784131033 -19.77080856402945,95.46273400769745 -28.702950625986563,137.96140925821314 l-46.10936864420384,211.6732263793229 c-13.743489172641578,61.71458343794982 19.920928598684192,73.44069319606659 -185.0529667188998,88.5490739190968 zm-368.837419144967,609.0053385300773 c27.46446034008495,-0.5422478500863248 100.71553124986605,-14.572910971069975 118.92509145348617,-20.883320326449578 c34.23487390301379,-11.895562211268746 45.14860042241349,-43.48827757692324 59.53760574407045,-73.50847417732739 c16.10787971845376,-33.61258860722605 30.211656974266717,-55.221165433166085 44.480566268199894,-86.86132748570313 c14.599173370173604,-32.3993090426579 25.242683827194778,-61.76203012483238 37.89780274858948,-92.67693567787896 c12.542528895403649,-30.643781628003417 25.092563792540034,-57.640946464176324 37.89780274858948,-92.67693567787896 c47.107666874657866,-128.96687304490624 2.964870684431144,-91.41620942642825 158.85702067164738,-111.76406000091757 c154.0381675592302,-20.103839041950486 192.9117505330755,-11.685441169360294 241.0927756555147,-172.5771563880989 c20.28121668185557,-67.69964408327763 35.24818413693329,-138.8154496220991 48.48877119348148,-209.5720159602384 c13.278117065211882,-71.04802455756068 87.82772627475649,-326.1824161213025 75.0750293308362,-365.50894144881323 c-4.5261190448404545,-13.908657354714228 -18.142006188025505,-36.54750509581828 -34.28741591514295,-36.54750509581828 c-51.348557853654306,0 -187.31227324045366,47.107781976249456 -235.62840639408216,59.82349406077377 c-29.978970920551863,7.889706218756023 -208.42665611464304,41.61752249412542 -220.5638609164789,49.669903067907335 c-36.006290311939736,23.872461600050443 -77.70212993729417,359.5035465091072 -83.87206336160405,392.3705443224645 c-48.73646925066182,259.5808239344497 -100.96322930704635,439.05130611677095 -209.46999035549348,668.5034838807992 c-15.702555624885958,33.233015112165624 -34.67772800524528,52.33369563145639 -38.43072887161382,92.2092469071795 z" id="svg_15"/>
  <path class="fil0" d="M4940.396130920971,5444.577942813619 c-48.73646925066182,0 -120.22362975324968,13.908657354714228 -167.6465487006825,14.844034896113135 l27.44194233488674,-190.97969280040354 c7.153219651298429,-50.239263310497975 29.881392898026288,-133.9013284806918 31.239979211651697,-187.61775612986833 c54.343452545016405,-3.999077894386644 117.16868704802567,-22.266052344169704 176.02324663441706,-22.266052344169704 c0,60.5894191490207 -58.779499569064015,297.91096883742676 -67.05861948027301,386.01946637832845 zm-243.08937211642285,-489.94804494549857 c-66.38307932432667,252.35537133204943 -59.94292983763827,525.4381667336485 -166.01774632467857,869.9892287766253 l-85.45582972721157,265.7895618179381 c39.15881103968931,0 57.886285362868314,-2.7654640354402558 91.6182571497887,-7.943931003764656 c73.83653904493458,-11.319423870552027 70.06102017336784,-58.81355743998798 114.88686252127364,-180.3448568405855 l86.88197005643161,-294.2304615549658 c50.58294567691513,0 227.49940651752792,-14.098444102244443 264.68413910150736,-25.411089874670388 c74.99996931350883,-22.815078292382104 84.64518154007597,-102.37639409629809 100.61795322734046,-178.1419749496098 c12.002096770646578,-56.936024259064084 87.34734216386131,-420.50642964381865 87.34734216386131,-471.979306813263 c0,-89.86402495555618 -132.0681004875088,-37.84889993602546 -270.5388204530423,-16.877464333936853 c-78.97815023185947,11.956565094403459 -151.09581487999728,24.10291693633713 -224.02412771527062,39.15029477623264 z" id="svg_16"/>
  <path class="fil0" d="M696.4502092193009,4777.1589546329915 c0,64.52749416027262 101.20342136249397,311.0333668095158 129.61363792090378,388.76459611939043 c65.73756317531128,179.7619404017427 249.1542215164744,539.4010488733713 387.45230344215497,694.8499512968687 c47.06263086426145,52.889499677794895 97.31531246493616,74.68108515313905 184.9478826946415,90.37238231501209 c263.80593689877713,47.20267535001456 320.1835159133653,100.09217502780943 218.69486648502735,-76.389165880911 l-142.06609479551457,-250.23382661858668 c-24.567143671248434,-45.318364070964584 -51.04831778434484,-44.491436099582934 -159.66016285705027,-52.645488145256046 c2.529522583932394,27.35640403685508 13.270611063479144,40.905822190887115 25.047527782143607,60.65720013028149 c5.7420913255438615,9.63845553528442 12.59507090753281,19.56159119186416 18.111982181094557,29.064484764627 l82.58103106357328,144.97674081870497 c-64.11626680104007,-27.796980415050218 -139.2588501474709,-2.9891412736008647 -173.83149412845785,-47.41957449004908 l-52.55702413262498,-81.22872794293143 c-104.96392823059523,-191.447381571103 -142.67408093586627,-246.76344037803418 -225.19506398557763,-470.43390044051694 c-18.442246257334986,-49.96813938545481 -84.88537359552356,-220.21363001818253 -84.88537359552356,-264.01370010890537 c19.980976612546087,8.655631307002958 154.75874372557297,35.61890565254545 184.39994456815165,37.85567803415154 c6.1474154191116614,66.69648556061793 62.14969434706295,173.8378826395496 67.06612548200573,227.12051200865707 c25.655513922495313,5.39536610835893 48.86407128011834,6.8797695979702445 79.06071625091958,11.888784113142668 c32.51599950621699,5.388588010232853 45.07354040508611,10.831400805474335 80.2016285142956,10.831400805474335 c-21.226972900180442,-82.32000174123016 -64.49907288940967,-309.04060596044854 -126.34102116543039,-357.02954069308834 c-49.59965944992657,-38.48604115987689 -155.8020779664234,-52.462479495851916 -228.0323326405523,-70.9802435762999 c-70.99176438822724,-18.20597156664835 -264.60907908418,-98.28920092627241 -264.60907908418,-26.007562509765346 z" id="svg_17"/>
  <path class="fil0" d="M4177.591198829833,5689.145279398804 c0.8406721940665525,-33.93793731727784 83.67690731655289,-317.0590960436001 96.85744635923919,-381.92549511017666 c5.712067318612912,-28.12910722322809 4.818853112417201,-33.32113038780465 20.49138473037221,-49.62923447915086 c0,67.5776383170082 8.38420393546731,105.28419819238601 8.38420393546731,174.14289705522316 l0,249.84069692727408 l-125.73303502507869,7.571135606830308 zm70.49636827386658,-679.0027578780956 c-43.76749610358987,82.39456082061703 -128.28507561420932,371.84646319669713 -156.37253409811143,480.3028113120881 l-139.5365722115822,509.9298782211797 c-10.838666502072332,33.77526296225195 -34.44504195153043,113.7364865556066 -34.44504195153043,150.6025622633506 c150.25514268593074,-11.28553337992163 123.60883653471411,-1.2810605458289421 153.8580235176445,-95.72707983461454 c15.529917585033003,-48.44306730708703 46.07183863554015,-141.32334592874835 47.32534092490724,-191.962517028685 c65.36976909040717,0 98.86905482361271,-7.577913704956387 167.65405470241527,-7.577913704956387 c-2.1617284990282766,87.71536784958909 -37.89780274858948,218.74278272482337 -39.2789070674131,238.62294452861323 c-1.8464764262533198,26.48202937859088 0.7806241802046563,23.736899637528865 25.287719837591194,22.848968783012506 c26.93153421706062,-0.9760461301553846 90.41729687255078,-12.356472883842123 106.18740651303136,-19.20235199118197 c29.273406757674582,-26.434582691708325 67.06612548200573,-399.89423324241227 67.06612548200573,-476.9815432303094 c-4.766311100288041,-120.7585962142245 5.066551169597524,-493.0998605741254 -21.879995050928564,-611.2217766173052 c-6.027319391387868,-26.414248397330088 -2.5970765995270266,-22.51006387670855 -74.43701918355355,-14.288230849774653 c-32.778709566862794,3.7550663618477977 -70.79660834317606,8.20827683068174 -101.42860141447605,14.654248148582923 z" id="svg_18"/>
  <path class="fil0" d="M1636.006470112931,5209.479609310566 c23.268605371484924,24.177476015724 38.8735829738453,73.86093527988349 51.55121990043822,104.85717801044301 l73.01838485606625,161.18317343816 c9.420032174585026,22.577844857969342 11.529218661484142,32.51453671080124 23.373689395743245,54.597580405566816 c21.241984903645918,39.55698066379738 41.62077960802707,65.88311378548845 53.24007029030406,110.91679773515769 c-53.72045440119922,0 -69.24286598449949,-7.577913704956387 -117.36384309307688,-7.577913704956387 c-22.540523203409432,-87.41713153204161 -80.99726469796575,-331.8760185472089 -83.81952134947488,-423.97681588437115 zm259.8577799873574,825.2470030463775 c-8.879600049827957,-34.43273848048162 -103.82301596721918,-186.3976984671741 -108.96462715414407,-242.27633941856985 c42.13118772585319,18.27375254790914 121.43209603222034,3.870294029991142 155.88464398548354,33.32113038780465 c14.584161366708132,12.478478650111546 57.69112931781714,87.63403067207614 72.06512263600864,109.05959884861204 c75.06001732737073,111.94029055219565 50.567933673449666,152.88678133183925 216.31546393574968,152.88678133183925 l-450.142429913975,-865.3733439527655 c-13.750995174374317,-31.59949346378057 -24.799829724963285,-54.69247377933191 -38.56583690280308,-86.30552343936463 c-13.05293701322977,-29.986306109773754 -19.73327855536576,-55.27539021817472 -32.10316941091646,-84.56355222096232 c-65.16710704362325,-154.22884476080287 -31.67532731215045,-88.37962146594482 -225.03743794919018,-129.0685445167974 c0,124.30354153416381 16.79092587613283,209.4703444883472 25.242683827194778,324.6641221410608 c12.59507090753281,171.5062168841784 84.26988145343911,438.9835251355102 167.3988506435022,605.9145257845853 c77.10915580040795,154.81176119964567 63.35816062603362,181.7411450545578 217.90673630308996,181.7411450545578 z" id="svg_19"/>
  <path class="fil0" d="M2666.7606520593167,5165.1847380566405 l75.44282341574032,0 l36.89199851640271,390.6556854965665 c18.577354288524255,115.53268255901753 93.75746764361877,531.5113426546153 130.7545501842798,601.1563009000778 l125.74054102681144,0 c-68.89758990479359,-267.0774004618931 -134.12474496227875,-738.7042461726 -134.12474496227875,-991.8119863966443 c191.51563421078643,0 167.65405470241527,51.90667544951343 167.65405470241527,-105.99589849562432 c-148.3936542562119,-6.3036312572535245 -323.5386986878988,-3.389049063039529 -469.1626383047307,-17.121475866475702 c-48.17351912070654,-4.534547646346891 -49.61467145339205,-10.783954118591781 -35.29322014732971,78.99873365945142 c2.6646306151216606,16.7012337826588 -19.012702389023,44.118640702648584 102.09663556868968,44.118640702648584 z" id="svg_20"/>
  <path class="fil0" d="M3142.1307537970206,5156.48843816088 c0,42.81046776431533 -0.9157322113939229,86.3190796356168 -0.3302640762404314,129.00754163366273 l42.70164385754121,877.9467159766422 c100.9932533139773,9.089429587072017 102.51697166572295,13.60364293904067 167.18868259498555,0 c-50.14009157468364,-194.40941045219952 -41.913513675603824,-940.5153397784779 -41.913513675603824,-1105.3790204990987 l-167.6465487006825,0 l0,98.42476288879399 z" id="svg_21"/>
  <path class="fil0" d="M6442.662329714433,2746.9287791247843 c15.537423586765733,-1.938536064058611 30.541921050507145,-3.6195043993262175 44.795818340974854,-4.948011632037712 c38.235572826562645,153.59170353695143 -95.17610197110606,210.07359522156824 -267.0109996386559,265.24731396785177 c-330.2190402300348,106.08401377126334 -1043.199132819264,141.06577819995738 -1561.6837085098098,291.05153353383474 c-489.1135909103459,141.465685989396 -537.4522420691726,335.27184570837454 -585.0477990564584,529.4711351186655 c-1.3811043188236214,5.61226524839346 -13.225575053082721,53.458859920385535 -14.606679371906344,59.07790326690507 c-18.907618364764687,-1.6064092558807377 -38.76849894958698,-1.6674121390154486 -58.16400742697957,-3.3619366705352127 c1.0208162356522419,-4.127861758782147 13.075455018427983,-51.459320973192206 14.051235243683799,-55.553292241343954 c49.23937136675519,-204.82734727198306 77.85224997194891,-411.1255418373252 592.5988367995919,-560.0132452747779 c518.4920816922788,-149.9789772357513 1231.4646682797752,-184.96074166444532 1561.6912145115427,-291.03797733758256 c158.00133647411536,-50.74084257182783 286.9469402408056,-102.10527017125492 273.3760891080169,-229.93342273097988 z" id="svg_22"/>
  <path class="fil1" d="M2755.654230580122,4221.659922710183 c-113.89607029255237,-105.65699358932035 -172.66055785815087,-213.2864137333297 -3.212568741611467,-307.92221976964555 c278.8029283607858,-155.72002634854027 734.4847875535207,-186.62137570533469 1045.4809573460159,-180.53464358811573 l100.11505111124707,-10.756841726087465 c219.82827274667065,-206.6709899622766 -57.105661182663646,-293.647545116123 1045.938823451713,-636.5718636088408 c353.2249355408739,-109.79841154435466 1148.8836372162016,-351.4782783278295 1513.630285416827,-385.3484346638466 c38.22806682482991,153.59170353695143 -72.79320480408413,213.18474226143854 -244.62059646990116,268.36523910584816 c-330.2190402300348,106.07723567313725 -1060.4254067958952,145.72233161257367 -1578.9174884881743,295.70808694645103 c-976.6434154550842,282.49079560059687 -286.6016641610996,750.1253415150433 -1081.247055602508,1080.7880804976842 c-218.4246504226488,90.88751777259408 -615.0267699770102,68.05888328395982 -797.167408023608,-123.72740319344713 zm1059.1343744978644,-395.12923025977875 c-140.83511051134568,-119.3013051171175 -1000.0921648681549,14.050997415361888 -1087.7772771099892,194.98554879291626 c89.56911867675149,185.70633245831402 990.7922287212936,141.68258512943055 1087.7772771099892,-194.98554879291626 z" id="svg_23"/>
  <path class="fil6" d="M4059.1089614785783,3886.8286533800037 c-12.580058904067336,51.19497514627512 -15.019509467206882,62.44661803556636 -34.33995792727211,113.45858453243734 c-20.528914739035894,-3.666951086208771 -40.51739735331471,-4.5752162351033645 -60.62597599531733,-6.940772481104955 c20.776612796216217,-49.161545708451406 24.784817721497816,-61.32145374663724 37.064636556255664,-110.87612914640125 c23.35117139054503,1.5047377839895513 36.359072393378376,2.8806917035836 57.90129736633377,4.358317095068834 z" id="svg_24"/>
  <path class="fil7" d="M3258.8265627358846,3568.9290731687697 c-4.976479148804679,-5.1649107720722425 -2.2593065215538584,-3.4703862405524784 -10.973774533261599,-9.86213277344503 l-38.43072887161382,-24.04191405320242 c-21.512200966024448,-14.60002336357429 -29.79132087723344,-18.002628622865977 -50.71054770637166,-35.00887682119833 c-99.23684890851683,-80.67970199471903 -173.64384408513942,-138.05630263197824 -243.0368301042937,-256.0494348107625 c-192.66405247589518,-327.61937292403127 -86.35654993514001,-645.2952758971045 125.96572107879354,-943.0435703795054 c119.54058359557061,-167.63592285418727 193.57227868555634,-219.33925535991835 310.15549759842855,-353.9048374569659 c220.54134291128065,-254.53791892864683 365.60983839989007,-562.9278274689918 174.41696226361137,-923.1634085757155 c-101.42860141447605,-191.10847666479904 -319.0275916465238,-370.4569530808509 -522.8605747007317,-482.06511682486865 c-50.207645590278275,-27.49196599937666 -179.9113555319749,-96.92002510480445 -244.5830664612375,-109.87297062374152 c8.271613909476253,14.071331709740127 72.10265264467232,44.28131505767448 104.46853211623458,66.7710446400048 c37.19223858571219,25.844888154739447 60.73856602130839,44.87778769276943 96.94751838003202,73.74570761174014 c48.045917091250004,38.29625441234668 122.2502502210887,121.74819854063203 158.4892265867433,172.17047050053415 c213.2980512391894,296.71802356723686 197.48290558831238,651.07699359865 4.631203069098774,954.1867636987794 c-43.234569980565546,67.95721181206862 -84.37496547769743,131.33242929090784 -135.3857532533786,190.68823458098214 l-160.1930889800746,174.86137545658755 c-194.3453968640283,209.9515894552988 -439.7616295175996,532.2908239391145 -304.1807202191698,892.1061629620212 c79.25587229597075,210.33116295035924 277.30923401597113,378.8753509534411 494.21016608687427,501.125128755403 c43.609870067202394,24.577383805162665 188.04786141026187,100.53952950413067 241.07025765031656,111.35737411335283 z" id="svg_25"/>
  <path class="fil8" d="M4040.87688326976,1389.6620760643352 l1.6288023760039452,-7.55080131245207 c66.37557332259394,107.90054406905253 108.79198911429113,157.97713302452462 121.79989011712448,305.7735626636785 c24.251891598473485,275.50935453073544 -190.30716793181574,550.1917810900893 -426.58109047491337,724.3346781453126 c-293.6723177933379,216.4382293619565 -517.5388194722212,551.0797119446057 -350.8905690019927,903.6424859726078 c30.106572950008395,63.70734428701707 78.11496003259471,135.56874061970726 128.96812177188838,189.75285703958323 c14.464065338984337,15.413395138703775 39.008691005034564,44.88456579089552 60.89619205769586,54.25189740113679 c-29.656212846044173,-58.698329771844634 -52.26429006504823,-86.63087214941643 -71.0292943968909,-158.76339240714975 c-72.94332483873887,-280.3828070833863 106.85544066724498,-556.847873449899 315.43221681654273,-757.0051111130135 c62.464946419837915,-59.945499827043186 175.95569261882244,-155.24555947971476 247.938249235771,-213.72699011152486 c306.1097626644833,-248.7358669327232 382.8286063747889,-599.4753325648101 136.93198961032243,-906.9840883487648 c-37.00458854239376,-46.26729780861565 -68.37967578523472,-80.93049162538395 -109.0321811697387,-120.11467689224698 c-31.76539933294329,-30.623447333625183 -92.03108724508925,-84.65844559472743 -127.24924737509157,-103.37277452083171 c13.180539042686297,15.820081026268522 25.302731841056673,27.417406919989794 39.58665313845532,43.467943282544994 c14.373993318191493,16.152207834446394 19.042726395953952,32.209522295127684 31.60026729482308,46.294410201119966 z" id="svg_26"/>
  <path class="fil9" d="M3744.6525248872917,1299.411699515593 c57.26328721905113,346.25914277074867 -64.69422893446082,573.325429994397 -412.259639168851,968.9494614173796 c-54.343452545016405,58.06118854799321 -105.21162628777553,110.8490167538969 -152.78466526986313,175.37651091416953 c-208.00632001760977,282.1925592830494 -263.76840689011345,591.4297300891543 -39.75178517657553,907.5873390819859 c45.27620245187002,63.890352936421195 170.53635936778628,187.0483958872777 250.43024181103968,199.0185171779333 l-13.330659077341043,-16.931689118945485 c-21.895007054394043,-9.374109708367337 -46.439632720444266,-38.84528036055909 -60.89619205769586,-54.25867549926286 c-50.85316173929367,-54.17733832174992 -98.86154882187998,-126.03873465444006 -128.9756277736211,-189.75285703958323 c-166.64825047022848,-352.5627740280022 29.648706844311437,-660.7357834283126 323.32102463764943,-877.1807908883953 c208.11140404186807,-202.88881120792445 416.38043412012365,-464.3810588139284 392.1285425216501,-739.9039695409159 c-13.007901002833345,-147.78965154102778 -20.956756837801912,-182.30372719902235 -87.33233016039583,-290.19749316994876 l-70.54891028599575,-82.70635333441666 z" id="svg_27"/>
  <path class="fil10" d="M3749.629004036096,5556.904584959 l-97.14267442508317,-268.1008932789311 c-12.58756490580007,-39.550202565671306 -88.51827843416831,-254.53791892864683 -120.73403787107578,-255.46651837191968 c-1.5387303552110996,-0.0406685887564744 -14.659221384035508,-0.033890490630395335 -17.458960030346432,0.033890490630395335 c-70.46634426693564,1.6606340408893692 -116.73333894752695,-10.526386389800777 -116.73333894752695,23.845349207546125 c0.6229981438171778,338.92524059833113 -6.4101254797574585,690.2205102767565 11.228978592174661,1027.891802721763 c0.6905521594118109,13.271516130862794 5.546935280492696,34.77164338678557 5.546935280492696,62.338168465549096 l125.72552902334597,0 c11.424134637225825,-238.1010309729051 8.391709937200046,-487.93494980205315 8.391709937200046,-726.8154620594574 l7.701157777788237,15.752300045007727 c3.760506868101273,9.170766764584965 5.321755228510584,14.999931153012955 8.294131914674466,22.787965899877793 c73.42370894963403,192.43020579938442 119.36794555571765,395.29190461480465 143.23703106582155,597.4486812251124 c11.056340552321709,93.70042849491689 -1.200960277237932,83.25537928262908 100.61795322734046,83.25537928262908 c39.49658111766247,0 32.763697563397315,-51.79822587949616 38.205548819631694,-86.62409405129036 l58.84705358465865,-567.6792742553732 c11.791928722129942,-70.51933290372652 7.603579755262655,-248.47829920393212 22.58555921380585,-350.5835693751871 c18.059440168965395,-123.06992767521746 26.488680114829126,-133.09473480368837 -22.803233264055226,-128.51274047045894 c-137.46491573334671,12.756380673280788 -128.99063977708656,-9.408000198997732 -130.52937013229771,73.29835313541894 c-2.4619685683377597,133.09473480368837 -24.97997376654898,311.01981061326364 -24.97997376654898,477.13066138908306 z" id="svg_28"/>
  <path class="fil10" d="M2400.057398491703,6094.448434945827 l-136.37654548209986,-331.08298106645765 c-6.7103655490669425,-25.573764229696284 -17.84927212044876,-56.522560273373266 -28.275108527220553,-88.03393846151481 c-10.523414429297377,-31.809614505689016 -17.939344141241598,-59.43036436946119 -27.096666255180832,-89.09132176918314 c-19.102774409815847,-61.90437018548003 -35.023004084951175,-125.04913232803256 -51.348557853654306,-188.32945643310666 c31.074847173531474,20.564749714523863 56.09985695047687,92.69049187413113 80.24666452469204,131.94245812225495 l75.99826754396285,135.77886166161568 c17.519008044208327,32.494202416423 38.46075287854476,59.179574738796255 58.20904343737599,91.28064746390666 c19.778314565762187,32.15529751011905 27.03661824131894,58.98978799126604 48.93913129744572,92.07368494465793 l107.80119688556984,175.1935022647654 c32.84626358245743,62.24327509178399 5.1341051851921575,23.947020679437312 56.317531000726255,92.9887281916786 c50.988269770482944,0 61.14389011487619,7.564357508704228 108.97213315587683,7.564357508704228 c-21.87248904919583,-84.76011706661862 -57.16570919652554,-163.20982477785762 -79.06822225265232,-254.1380111392082 c-65.4598411112,-271.66617289324864 -63.868568743859754,-232.04818934631658 -116.3355208556919,-553.6147206437593 c-6.455161490153882,-39.61120544880601 -29.506092811389436,-279.16952751881814 -39.308931074344045,-297.6195106180054 c-21.174430888051283,-9.177544862711045 -123.54128251911946,-15.142271213660615 -159.26985076694794,-15.142271213660615 c0,50.30026619363268 13.570851132788624,86.3529701262472 16.76090186920188,136.28044092294553 c4.6987570846934075,73.42713699981444 30.151608960404822,184.38460332372858 42.22876574837877,264.70506611776545 c6.214969434706297,41.31250807845186 23.74148348064736,84.69233608535784 24.83735973362698,128.98720733928448 c-7.521013736202546,-7.815147139369152 -4.375999010185714,-1.9792046528150848 -13.938645217692743,-17.690836109066343 c-6.950557604514531,-11.427873440569291 -5.9672713775259725,-11.556657304964794 -10.163126346125996,-21.106997564610186 c-8.71446801170774,-19.832715116907323 -8.879600049827957,-22.73374111486916 -21.241984903645918,-41.37351096158657 l-139.07120010415247,-245.38070836031406 c-161.21390521572684,-291.43110702889516 -106.37505655634979,-214.02522642907232 -276.6186818565593,-249.84747502540014 c0,131.22397972089055 142.34381685962583,662.3828612729499 201.09329242175895,795.0437977965693 c20.649010766759687,46.64687130367607 38.205548819631694,95.30005965267155 59.86036381857815,142.77385892772926 c19.808338572693135,43.413718497536365 45.801622573161616,94.88659566698074 64.6867229327281,138.4290980289126 c21.512200966024448,49.60212208664655 14.373993318191493,59.41003007508295 152.16166712604596,59.41003007508295 z" id="svg_29"/>
  <path class="fil10" d="M5333.913283763177,5379.447197920126 l83.81952134947488,-408.47530547002833 c41.84595966000918,-8.63529701262472 132.8412186659807,-28.86114182084463 176.03825863788254,-29.70840408660451 c-1.005804232186768,39.63831784131033 -19.77080856402945,95.46273400769745 -28.702950625986563,137.96140925821314 l-46.10936864420384,211.6732263793229 c-13.743489172641578,61.71458343794982 19.92843460041693,73.44069319606659 -185.04546071716703,88.5490739190968 zm-368.837419144967,609.0053385300773 c27.46446034008495,-0.5422478500863248 100.71553124986605,-14.572910971069975 118.92509145348617,-20.883320326449578 c34.227367901281056,-11.895562211268746 45.14860042241349,-43.48827757692324 59.530099742337725,-73.51525227545346 c16.10787971845376,-33.60581050909997 30.219162975999453,-55.221165433166085 44.48807226993263,-86.85454938757702 c14.599173370173604,-32.3993090426579 25.242683827194778,-61.76203012483238 37.89780274858948,-92.67693567787896 c12.542528895403649,-30.643781628003417 25.092563792540034,-57.640946464176324 37.89029674685674,-92.67693567787896 c47.1151728763906,-128.96687304490624 2.9723766861638805,-91.41620942642825 158.86452667338017,-111.76406000091757 c154.0381675592302,-20.103839041950486 192.9117505330755,-11.685441169360294 241.0927756555147,-172.5771563880989 c20.28121668185557,-67.69964408327763 35.24818413693329,-138.8154496220991 48.48877119348148,-209.5720159602384 c13.278117065211882,-71.04802455756068 87.82022027302375,-326.1824161213025 75.06752332910347,-365.50894144881323 c-4.518613043107717,-13.908657354714228 -18.134500186292765,-36.54750509581828 -34.279909913410215,-36.54750509581828 c-51.348557853654306,0 -187.31977924218637,47.107781976249456 -235.62840639408216,59.82349406077377 c-29.978970920551863,7.889706218756023 -208.42665611464304,41.61074439599934 -220.5638609164789,49.669903067907335 c-36.006290311939736,23.872461600050443 -77.70212993729417,359.5035465091072 -83.87956936333678,392.3705443224645 c-48.72896324892908,259.5808239344497 -100.96322930704635,439.05130611677095 -209.46248435376074,668.5034838807992 c-15.702555624885958,33.233015112165624 -34.67772800524528,52.33369563145639 -38.43072887161382,92.2092469071795 z" id="svg_30"/>
  <path class="fil10" d="M4923.169856944339,5425.904282476272 c-48.73646925066182,0 -120.23113575498243,13.908657354714228 -167.6465487006825,14.844034896113135 l27.434436333154,-190.97969280040354 c7.153219651298429,-50.239263310497975 29.88889889975902,-133.9013284806918 31.239979211651697,-187.61775612986833 c54.35095854674913,-3.999077894386644 117.16868704802567,-22.266052344169704 176.03075263614983,-22.266052344169704 c0,60.5894191490207 -58.787005570796744,297.91096883742676 -67.05861948027301,386.01946637832845 zm-243.0968781181556,-489.94804494549857 c-66.37557332259394,252.35537133204943 -59.93542383590552,525.4381667336485 -166.01024032294583,869.9892287766253 l-85.45582972721157,265.7895618179381 c39.15130503795657,0 57.87877936113557,-2.7654640354402558 91.6182571497887,-7.943931003764656 c73.82903304320186,-11.319423870552027 70.0535141716351,-58.81355743998798 114.88686252127364,-180.3448568405855 l86.87446405469888,-294.2304615549658 c50.58294567691513,0 227.50691251926068,-14.098444102244443 264.6916451032401,-25.41786797279647 c74.99996931350883,-22.80830019425603 84.64518154007597,-102.36961599817201 100.61044722560771,-178.13519685148373 c12.002096770646578,-56.936024259064084 87.35484816559405,-420.50642964381865 87.35484816559405,-471.979306813263 c0,-89.86402495555618 -132.0681004875088,-37.84889993602546 -270.5388204530423,-16.877464333936853 c-78.98565623359221,11.956565094403459 -151.09581487999728,24.10291693633713 -224.03163371700344,39.15029477623264 z" id="svg_31"/>
  <path class="fil10" d="M666.2085282381032,4754.6217783637785 c0,64.52749416027262 101.1959153607612,311.0333668095158 129.60613191917102,388.76459611939043 c65.74506917704402,179.76871849986878 249.1617275182071,539.4010488733713 387.4598094438877,694.8499512968687 c47.06263086426145,52.889499677794895 97.31531246493616,74.68108515313905 184.9403766929087,90.37238231501209 c263.81344290050987,47.20267535001456 320.1835159133653,100.09217502780943 218.70237248676008,-76.389165880911 l-142.0736007972473,-250.23382661858668 c-24.5596376695157,-45.318364070964584 -51.04831778434484,-44.48465800145686 -159.66016285705027,-52.645488145256046 c2.529522583932394,27.363182134981155 13.278117065211882,40.905822190887115 25.047527782143607,60.65720013028149 c5.7420913255438615,9.63845553528442 12.59507090753281,19.56159119186416 18.111982181094557,29.064484764627 l82.58853706530601,144.97674081870497 c-64.12377280277282,-27.790202316924137 -139.2588501474709,-2.9891412736008647 -173.83900013019058,-47.41957449004908 l-52.55702413262498,-81.22872794293143 c-104.96392823059523,-191.447381571103 -142.67408093586627,-246.76344037803418 -225.19506398557763,-470.43390044051694 c-18.442246257334986,-49.96813938545481 -84.87786759379082,-220.21363001818253 -84.87786759379082,-264.01370010890537 c19.973470610813347,8.655631307002958 154.75874372557297,35.61890565254545 184.39243856641892,37.85567803415154 c6.1474154191116614,66.703263658744 62.1572003487957,173.8378826395496 67.07363148373848,227.12051200865707 c25.648007920762577,5.39536610835893 48.85656527838561,6.8797695979702445 79.05321024918683,11.888784113142668 c32.51599950621699,5.388588010232853 45.07354040508611,10.838178903600413 80.2016285142956,10.838178903600413 c-21.226972900180442,-82.32677983935623 -64.49907288940967,-309.0473840585746 -126.34102116543039,-357.0363187912144 c-49.59965944992657,-38.48604115987689 -155.8020779664234,-52.462479495851916 -228.0323326405523,-70.9802435762999 c-70.99176438822724,-18.20597156664835 -264.60157308244726,-98.28242282814634 -264.60157308244726,-26.007562509765346 z" id="svg_32"/>
  <path class="fil10" d="M4160.3649248532,5670.471619061457 c0.8406721940665525,-33.93793731727784 83.67690731655289,-317.0590960436001 96.84994035750644,-381.92549511017666 c5.719573320345649,-28.12910722322809 4.818853112417201,-33.32113038780465 20.498890732104943,-49.62923447915086 c0,67.5776383170082 8.38420393546731,105.28419819238601 8.38420393546731,174.14289705522316 l0,249.84069692727408 l-125.73303502507869,7.571135606830308 zm70.49636827386658,-679.0027578780956 c-43.76749610358987,82.39456082061703 -128.29258161594203,371.84646319669713 -156.37253409811143,480.3028113120881 l-139.5365722115822,509.9298782211797 c-10.838666502072332,33.77526296225195 -34.44504195153043,113.7364865556066 -34.44504195153043,150.6025622633506 c150.25514268593074,-11.28553337992163 123.60883653471411,-1.2810605458289421 153.8580235176445,-95.72707983461454 c15.522411583300265,-48.44306730708703 46.07183863554015,-141.32334592874835 47.32534092490724,-191.962517028685 c65.36976909040717,0 98.86154882187998,-7.577913704956387 167.6465487006825,-7.577913704956387 c-2.1617284990282766,87.71536784958909 -37.89029674685674,218.74278272482337 -39.27140106568036,238.62294452861323 c-1.853982427986057,26.48202937859088 0.7806241802046563,23.736899637528865 25.287719837591194,22.848968783012506 c26.93153421706062,-0.9760461301553846 90.40979087081804,-12.356472883842123 106.18740651303136,-19.20235199118197 c29.273406757674582,-26.434582691708325 67.06612548200573,-399.89423324241227 67.06612548200573,-476.9815432303094 c-4.766311100288041,-120.7585962142245 5.066551169597524,-493.0998605741254 -21.879995050928564,-611.2217766173052 c-6.027319391387868,-26.414248397330088 -2.6045826012597644,-22.51006387670855 -74.43701918355355,-14.288230849774653 c-32.778709566862794,3.7482882637217187 -70.80411434490881,8.20827683068174 -101.42860141447605,14.654248148582923 z" id="svg_33"/>
  <path class="fil10" d="M1612.099854594163,5193.490075831145 c23.276111373217663,24.184254113850077 38.8735829738453,73.86771337800957 51.55872590217095,104.86395610856911 l73.01838485606625,161.17639534003393 c9.412526172852287,22.577844857969342 11.529218661484142,32.52131480892732 23.373689395743245,54.60435850369289 c21.241984903645918,39.55698066379738 41.62077960802707,65.88311378548845 53.24007029030406,110.91679773515769 c-53.72045440119922,0 -69.24286598449949,-7.577913704956387 -117.36384309307688,-7.577913704956387 c-22.540523203409432,-87.42390963016769 -80.99726469796575,-331.8760185472089 -83.82702735120763,-423.98359398249727 zm259.8652859890902,825.2537811445036 c-8.879600049827957,-34.43273848048162 -103.82301596721918,-186.3976984671741 -108.97213315587683,-242.27633941856985 c42.138693727585924,18.26697444978306 121.4396020339531,3.863515931865063 155.89214998721624,33.32113038780465 c14.584161366708132,12.471700551985466 57.6836233160844,87.63403067207614 72.06512263600864,109.05282075048595 c75.06001732737073,111.94706865032173 50.567933673449666,152.8935594299653 216.31546393574968,152.8935594299653 l-450.142429913975,-865.3801220508916 c-13.750995174374317,-31.592715365654485 -24.799829724963285,-54.68569568120584 -38.56583690280308,-86.29874534123857 c-13.05293701322977,-29.986306109773754 -19.740784557098504,-55.2821683163008 -32.1106754126492,-84.56355222096232 c-65.16710704362325,-154.22884476080287 -31.667821310417704,-88.38639956407091 -225.02993194745744,-129.0753226149235 c0,124.3103196322899 16.79092587613283,209.4703444883472 25.242683827194778,324.6709002391869 c12.58756490580007,171.5062168841784 84.26988145343911,438.9835251355102 167.3988506435022,605.9145257845853 c77.10915580040795,154.81176119964567 63.35816062603362,181.7411450545578 217.90673630308996,181.7411450545578 z" id="svg_34"/>
  <path class="fil10" d="M2643.1467706081266,5148.07004028829 l75.43531741400759,0 l36.89199851640271,390.6556854965665 c18.58486029025699,115.53268255901753 93.7649736453515,531.5045645564893 130.76205618601253,601.1495228019517 l125.74054102681144,0 c-68.89758990479359,-267.07062236376703 -134.12474496227875,-738.7042461726 -134.12474496227875,-991.8052082985181 c191.51563421078643,0 167.65405470241527,51.90667544951343 167.65405470241527,-105.99589849562432 c-148.40116025794467,-6.3036312572535245 -323.5462046896315,-3.389049063039529 -469.1626383047307,-17.121475866475702 c-48.17351912070654,-4.541325744472969 -49.61467145339205,-10.783954118591781 -35.29322014732971,78.99873365945142 c2.6646306151216606,16.7012337826588 -19.012702389023,44.118640702648584 102.09663556868968,44.118640702648584 z" id="svg_35"/>
  <path class="fil10" d="M3120.941310905504,5140.4921265833345 c0,42.81046776431533 -0.9157322113939229,86.3190796356168 -0.3302640762404314,129.0143197317888 l42.70164385754121,877.939937878516 c101.00075931571006,9.096207685198095 102.52447766745567,13.610421037166748 167.1961885967183,0 c-50.14009157468364,-194.40263235407346 -41.913513675603824,-940.5153397784779 -41.913513675603824,-1105.372242400973 l-167.65405470241527,0 l0,98.41798479066792 z" id="svg_36"/>
  <path class="fil10" d="M3419.5976138493793,6258.613971559462 c-196.84489544102973,0 -521.5170003905718,5.212357458954796 -713.6406207417099,-19.975055177554985 c-213.9285553847393,-28.04777004571514 -334.30230517264374,-30.304876721699472 -571.1016478370329,-78.34803623934783 l-870.5685989680438,-167.4935827935396 c-8.571853978785738,28.989925685240134 -8.736986016905954,10.106144305983875 -17.316345997424428,39.08929189309793 c42.49898181075731,8.947089526424357 76.61375968604729,21.696692101579067 119.3154035435885,32.96189118712246 c170.99422547348325,45.12857732343437 387.4072674317585,139.05268305651188 536.8367499270882,226.57148606044467 c210.49080659114574,123.26649252087377 496.7096646638758,154.36440672332446 745.6086821214373,186.54003852782176 l355.84453014559915,30.420104389842813 c116.26796684009727,8.614962718246483 262.6950486423321,5.849498682806228 380.3666378064512,0.37957349506042776 c25.137599802936457,-1.172610975811677 52.35436208584108,1.4572910971069972 77.46944388357932,-0.38635159318650686 c270.3887004183876,-19.85982750941164 779.2355698840993,-60.480969579003435 1013.3477639281684,-171.4452140010437 c59.33494369728655,-28.122329125102013 248.91402946102681,-135.20950141902506 308.7969112848031,-158.89895436967137 c106.40508056328072,-42.09876746107703 361.984439562978,-131.21720162276446 470.07837051612466,-153.95772083575972 c-5.3067432250451105,-20.564749714523863 -7.87379581764119,-22.977752647408007 -17.308839995691688,-39.08929189309793 c-69.25787798796497,14.572910971069975 -138.98863408509237,33.45669235032623 -208.35910209904836,46.3486349861286 c-74.75227125632851,13.895101158462069 -151.95900507926203,20.679977382667207 -227.83717659550112,36.574617488322595 c-251.75880411773412,52.73360342089507 -384.9903348738172,87.05111423323335 -647.0398673671339,127.02155888272154 c-73.9416230691929,11.278755281795553 -163.15795966450574,24.699389571432086 -233.86449598688895,31.13858279120719 c-162.50493751375762,14.803366307356663 -326.78879743817396,32.548427201431636 -500.62779756836454,32.548427201431636 z" id="svg_37"/>
 </g></g></svg>